<?xml version="1.0" encoding="UTF-8"?>
<svg width="125px" height="68px" viewBox="0 0 125 68" version="1.1" xmlns="http://www.w3.org/2000/svg" xmlns:xlink="http://www.w3.org/1999/xlink">
    <title>Disney+ logo</title>
    <g id="Page-1" stroke="none" stroke-width="1" fill="none" fill-rule="evenodd" fill-opacity="0.85">
        <g id="Home" transform="translate(-591.000000, -587.000000)" fill="#000000" fill-rule="nonzero">
            <g id="Disney+-logo" transform="translate(591.000000, 587.000000)">
                <path d="M56.7485375,46.0843311 C56.8176623,46.0938426 56.8326623,46.096596 56.9000371,46.1053567 C58.0257844,46.2585431 59.1320318,46.4616653 59.9787798,46.8406264 C60.7635279,47.1875486 61.2235268,47.6265829 61.6435258,48.4091602 C62.2821493,49.5958543 62.3237742,51.2583775 61.7466506,52.5166587 C61.3155266,53.4529231 60.3691539,54.2380035 59.5051559,54.6541349 C58.607908,55.0896649 57.7239101,55.2970422 56.7100376,55.4129333 C54.9367918,55.6084212 53.0216713,55.2405985 51.4260501,54.4679082 C50.4820524,54.0063465 49.3293051,53.2115043 48.7478065,52.1875082 C48.3201825,51.4373453 48.3338075,50.4612825 48.8540563,49.7482898 C49.6833043,48.6119069 51.4594251,48.3617275 52.7971719,48.4091602 C53.8170444,48.4487083 55.6534151,48.7643424 56.6217878,49.1092622 C56.8901621,49.2063804 57.8800348,49.5924752 58.0527844,49.7695657 C58.1744091,49.8927156 58.2532839,50.0716834 58.198659,50.2371347 C57.9774095,50.9147093 56.3329135,51.2718939 55.8580396,51.3436062 C54.5867926,51.5385935 53.9271692,51.0568823 52.4819226,50.485562 C52.1231735,50.3448908 51.6450496,50.1888259 51.2798005,50.1550348 C50.623677,50.0924587 49.8311789,50.2764325 49.7059292,50.9935552 C49.6436794,51.36313 50.0765534,51.7088006 50.4066776,51.8541024 C51.1819257,52.1875082 51.8121742,52.3074041 52.5751724,52.3176666 C54.829167,52.3548368 57.362286,51.9832596 59.2059066,50.6754181 C59.458281,50.4950736 59.7061554,50.2311274 59.7087804,49.8983474 C59.7167804,49.2264047 58.5401582,48.8155297 58.5401582,48.8155297 C57.2982862,48.2971489 55.0036666,48.0448419 53.8215444,47.9473482 C52.5810474,47.8398424 50.629177,47.6790217 50.1605532,47.6099376 C49.6780543,47.5409787 49.1539305,47.4434851 48.7360565,47.2560069 C48.3163075,47.0661509 47.9056835,46.6412588 47.7838088,46.1711868 C47.5676843,45.3237805 47.8434337,44.2840152 48.3134325,43.6070664 C49.5453046,41.8339086 52.4309227,41.1604641 54.5866676,40.8930136 C56.6731626,40.6330723 60.0462796,40.6357005 62.0956497,41.7260274 C62.412024,41.895859 62.5736486,42.0538012 62.5075238,42.3924634 C62.3740241,43.028237 61.8967752,43.4379857 61.3182766,43.6175792 C60.711403,43.8109395 59.456031,43.8862812 58.9046573,43.9210736 C56.4339132,44.0597423 53.4481703,43.9870288 51.0948009,44.6295607 C50.9104264,44.6822498 50.5919271,44.7682295 50.4884274,44.8839954 C50.1200532,45.2843576 51.1721757,45.3987468 51.3975502,45.4445525 C51.46455,45.460572 51.47755,45.4628247 51.5474249,45.470459 L56.7485375,46.0843311 M42.0499475,35.0537827 C42.0499475,35.0537827 42.4518215,34.4502984 42.7885707,33.9924912 C43.4016942,33.1587266 44.5113166,32.0024445 45.3469396,31.2865733 C45.602564,31.0679323 45.9039383,30.8202559 45.9039383,30.8202559 C45.9039383,30.8202559 45.4325644,30.8690653 45.16544,30.9237568 C44.5314416,31.0472821 43.6018188,31.66591 43.1373199,32.0656464 C42.3708217,32.7225708 41.5279487,33.7904954 41.9093228,34.7394002 C41.9646977,34.8734383 42.0499475,35.0537827 42.0499475,35.0537827 M46.3109373,36.195422 C47.5218094,36.1118203 48.6560567,35.7627705 49.7120542,35.1763068 C50.7476768,34.5961008 52.2709231,33.464724 52.1129235,32.1347305 C52.0649236,31.7042066 51.7834243,31.379186 51.4280501,31.2275015 C50.9661762,31.0271326 50.7253018,31.0594219 50.1353032,31.2350106 C49.7066792,31.3605384 49.5135547,31.4367561 49.1088057,31.6686633 C47.9209335,32.3596292 46.2366875,33.8384288 45.3223147,35.0186149 C45.1113152,35.2969537 44.8975657,35.6082074 44.7303161,35.8215921 C44.6248163,35.9531272 44.5428165,36.0738991 44.5530665,36.1060633 C44.5895664,36.2398511 45.8380634,36.2275862 46.3109373,36.195422 M43.2279447,38.4626811 C43.10307,38.5949671 42.9709453,38.9138552 42.8339456,39.1447611 C42.7606958,39.2682865 42.6250711,39.427355 42.5353213,39.4911827 C42.2201971,39.7232151 41.9531977,39.7339782 41.6489484,39.465902 C41.2223244,39.0880672 40.975575,38.5037311 40.9580751,37.9352893 C40.9489501,37.6872375 40.99145,37.4127785 40.9445751,37.203649 C40.8669503,36.8505943 40.5140761,36.4869017 40.3238266,36.149366 C40.1004521,35.7517571 39.9197025,35.0584134 39.8972026,34.6107436 C39.8205778,33.21492 40.555451,31.9291053 41.5100737,30.9149962 C42.4714465,29.8894982 43.7291935,29.037211 45.0970652,28.457005 C46.3900621,27.9117164 48.2848076,27.5400141 49.7046792,28.0323632 C50.1669281,28.1909312 50.8109266,28.5847855 51.1345508,28.9974126 C51.2033007,29.0830168 51.2593005,29.1756295 51.3298004,29.2209346 C51.3929252,29.2612337 51.5580498,29.277128 51.6894245,29.3012824 C52.1422984,29.379878 52.7942969,29.7231708 53.0606712,29.9518241 C53.595795,30.4140115 53.8889193,30.8557991 54.024544,31.4969544 C54.2965433,32.7870243 53.5545451,34.2023716 52.7094221,35.0637949 C51.2623005,36.5463491 49.8331789,37.5887426 47.9819333,38.3143756 C47.1688103,38.6323876 45.9024383,38.9294992 44.9799405,38.8463981 C44.6934412,38.8226191 44.3991919,38.7470271 44.1201925,38.7285046 C43.9778179,38.7162397 43.4573191,38.5818261 43.4016942,38.543905 C43.3326944,38.4908404 43.2435696,38.4446592 43.2279447,38.4626811 M44.8813157,41.3229118 C44.9376906,41.3324234 45.0245654,41.3577041 45.0993152,41.3864892 C45.7483137,41.633665 46.015313,42.2350218 46.1751876,42.8955756 C46.5456868,44.4294422 46.7038114,47.8228217 46.7654362,49.151063 C46.8106861,50.1480263 46.8355611,51.1288449 46.877311,52.1142941 C46.9126859,52.9488096 46.9791857,54.0582848 46.8054361,54.8401112 C46.7423113,55.1213284 46.5544367,55.4483514 46.2854374,55.6158051 C45.9773131,55.8132955 45.2759398,55.8283137 44.8904407,55.7487169 C43.940193,55.5519775 43.6314437,54.940233 43.495819,53.999338 C43.1734448,51.7542309 43.3286944,47.3479938 43.518944,45.4887313 C43.5821938,44.8746089 43.8131933,42.9069645 44.1334425,42.0819605 C44.2428172,41.8037469 44.4756917,41.2434401 44.8813157,41.3229118 M15.9733845,45.0583325 C15.9733845,45.0583325 14.5591379,45.1585795 13.5857652,45.2667111 C12.3473932,45.4002486 10.0205237,45.8024881 8.6774019,46.2826975 C8.27452786,46.4271232 7.45615481,46.7700405 7.38502998,47.1847952 C7.31028015,47.6146934 7.57677952,47.9508525 7.87315381,48.2986507 C8.04452841,48.5006465 9.0145261,49.4349085 9.28652545,49.6619347 C10.4266477,50.6149695 12.7385172,52.0847581 14.4412632,52.7985017 C15.0262618,53.0407965 15.9940095,53.3877187 15.9940095,53.3877187 C15.9940095,53.3877187 15.9221347,50.6288614 15.9350096,47.9113044 C15.9425096,46.4776847 15.9733845,45.0583325 15.9733845,45.0583325 M41.9050728,46.1562936 C41.9860726,46.8974456 41.7958231,48.2987759 41.7628231,48.4836258 C41.7025733,48.9096443 41.381699,49.8923401 41.3284492,50.012236 C41.0694498,50.6094628 40.8140754,51.0988083 40.543451,51.5869023 C40.0797021,52.4225442 38.9769548,53.7472813 38.3223313,54.3142212 C35.8879621,56.4209099 32.1194711,57.6203695 28.8864788,58.0154753 C26.692734,58.2807982 24.17199,58.2418759 21.8474955,57.8112268 C21.0474975,57.6655495 19.8570003,57.3908402 19.8570003,57.3908402 C19.8570003,57.3908402 19.8608753,57.8674202 19.8227504,58.202578 C19.8042504,58.3555142 19.6892507,58.7580039 19.6247508,58.8884126 C19.4557512,59.237963 19.1782519,59.4183075 18.7747529,59.4959019 C18.287754,59.586387 17.7712553,59.6165487 17.3212563,59.4239393 C16.5823831,59.1126856 16.3171337,58.4205933 16.188384,57.622372 C16.0842593,56.9839701 15.9752595,55.8742446 15.9752595,55.8742446 C15.9752595,55.8742446 15.4225108,55.6121757 14.9616369,55.3818955 C13.5460153,54.6835456 12.2015185,53.8373909 11.0252713,52.967207 C10.6993971,52.7236606 9.29940042,51.549732 8.99040116,51.2582523 C8.12390322,50.434625 7.34440507,49.6152529 6.75140648,48.5638484 C6.29040758,47.7424739 6.1576579,47.0134617 6.50828206,46.1431527 C6.99178091,44.9300514 8.72890178,44.0166899 9.91777395,43.4961815 C10.7903969,43.1104621 13.5037654,42.2233826 14.6308877,42.0589325 C15.1632615,41.9827147 15.9890095,41.8346595 16.0397594,41.8016193 C16.0605093,41.785725 16.0748843,41.7722085 16.0898843,41.7550627 C16.1158842,41.7183931 16.1597591,40.5175567 16.1512591,40.0782722 C16.1402591,39.6463716 16.4705083,36.8096695 16.5766331,36.2098145 C16.632008,35.8854198 16.8773824,34.6366501 17.1278818,34.3088763 C17.2917564,34.0873567 17.5815057,34.1052535 17.8177551,34.2506804 C19.1105021,35.0555349 19.5032511,37.8468066 19.5993759,39.2670349 C19.6568758,40.132338 19.6855007,41.4339219 19.6855007,41.4339219 C19.6855007,41.4339219 21.1684972,41.3899934 22.080745,41.4158999 C22.9672429,41.4365501 23.9443656,41.5765955 24.8644884,41.7233992 C26.0424856,41.9125043 28.3386051,42.4139895 29.655477,43.082428 C30.7398494,43.6328478 31.754847,44.5602264 32.0837212,45.5416707 C32.3892205,46.4413906 32.3434706,47.0640233 31.8780967,47.8760114 C31.3548479,48.7928772 30.3651003,49.4743314 29.3616027,49.5312757 C29.0629784,49.5485468 27.938981,49.3989898 27.5931069,49.1309135 C27.4574822,49.0240335 27.4644822,48.8311738 27.5623569,48.7003896 C27.5994819,48.6544587 28.1248556,48.3747433 28.4349799,48.2115447 C28.5904795,48.1269418 28.7191042,48.0357057 28.8404789,47.924946 C29.0981033,47.6977945 29.3299777,47.4477402 29.3041028,47.1546335 C29.2684779,46.7741706 28.8663538,46.53951 28.4831048,46.3885763 C26.684859,45.6733309 23.0944926,45.0796084 21.3594967,44.9768584 C20.6803733,44.9369348 19.7143756,44.9027682 19.7143756,44.9027682 L19.9186251,54.4951914 C19.9186251,54.4951914 20.7172482,54.6475018 21.3466217,54.7496261 C21.7077459,54.8044428 23.2378672,54.9423606 23.6444913,54.9523728 C26.7404839,55.0342224 30.1959757,54.7566346 33.0372189,53.414251 C34.2845909,52.8265358 35.4289632,52.0947703 36.2953362,51.1041898 C37.4372084,49.7934698 38.035207,47.9996619 37.8769574,46.1260068 C37.7034578,44.0797667 36.2650862,41.6506857 35.116464,40.1716358 C32.0815962,36.2640055 26.8794836,33.0495938 22.3027445,31.1650505 C17.6302556,29.2423357 13.0122666,28.1362396 8.05340339,27.9510142 C6.77503143,27.9035815 3.98766306,27.9681601 2.57866642,28.358385 C2.3774169,28.4152041 2.17454238,28.4830367 1.98766782,28.5250878 C1.84004318,28.5612568 1.60741873,28.6591259 1.54354388,28.7108138 C1.50816897,28.7394737 1.47316905,28.779147 1.47316905,28.779147 C1.47316905,28.779147 1.56004384,28.8272055 1.64304365,28.8623733 C1.79229329,28.9275776 2.42054179,28.9666251 2.74566602,29.0261976 C3.03654033,29.0810143 3.33941461,29.2339505 3.45928932,29.4473351 C3.57316405,29.650207 3.58741402,29.8101517 3.45128934,29.9793576 C3.1320401,30.3680806 1.93041796,30.3025008 1.40129422,30.2186488 C0.85142053,30.130917 0.166797159,29.962462 0.0410474586,29.4831287 C-0.104827194,28.9185667 0.163047168,28.3651432 0.452421479,27.8535206 C1.0337951,26.8298999 1.86654311,26.297502 3.08604021,25.9640963 C4.81816109,25.4868906 7.00528088,25.1532345 8.64090199,25.0906584 C12.3428932,24.950613 15.8466348,25.5987767 19.4335013,26.6891036 C21.4863714,27.3106099 24.17399,28.353504 26.1416103,29.3020333 C27.553482,29.9836127 29.7779767,31.237013 31.0275987,32.0561348 C31.4217228,32.3165768 33.7280923,34.0132665 34.0863414,34.3115044 C34.8337146,34.9232489 35.8112123,35.802569 36.5190856,36.5057997 C37.8885824,37.8645783 39.5919533,39.9473629 40.4194513,41.6004996 C40.6185759,41.9963563 40.7728255,42.3858303 41.0296999,42.8446386 C41.1180747,43.0018299 41.4960738,43.941974 41.5589486,44.2135545 C41.6211985,44.4822565 41.7124483,44.8772371 41.7253232,44.8928812 C41.7435732,45.0371818 41.9188228,45.8449147 41.9050728,46.1562936 M88.445337,44.0353376 C86.7117161,44.4355747 82.152852,44.6578451 82.152852,44.6578451 L81.5779784,46.4607892 C81.5779784,46.4607892 83.8562229,46.2660522 85.513594,46.4393881 C85.513594,46.4393881 86.0505927,46.3769371 86.1137176,47.0497559 C86.1350925,47.6772696 86.0604677,48.3505889 86.0604677,48.3505889 C86.0604677,48.3505889 86.0260928,48.7579597 85.4494691,48.8615858 C84.8245956,48.9658376 80.5389808,49.1317896 80.5389808,49.1317896 L79.8449825,51.4818995 C79.8449825,51.4818995 79.5871081,52.0251856 80.1651067,51.8701219 C80.7021054,51.7261968 85.1925948,50.8825451 85.7774684,51.0039429 C86.4042169,51.1597575 87.0978402,51.9964006 86.8973407,52.7588284 C86.6583413,53.7038534 82.1764769,56.5657111 79.4471084,56.365968 C79.4471084,56.365968 78.0128619,56.4585807 76.8006147,54.5205974 C75.6716174,52.67385 77.2284887,49.1770947 77.2284887,49.1770947 C77.2284887,49.1770947 76.5148654,47.5447333 77.0319892,46.9914349 C77.0319892,46.9914349 77.3397385,46.7118447 78.2368613,46.6486428 L79.3353587,44.3732488 C79.3353587,44.3732488 78.0841117,44.4594787 77.3397385,43.5378572 C76.6463651,42.6635432 76.5882402,42.2616792 77.119864,42.0202604 C77.6883626,41.7391683 82.8991002,40.7870096 86.4847167,40.9077816 C86.4847167,40.9077816 87.7308387,40.7852575 88.8115861,42.9493911 C88.8118361,42.9495162 89.3353349,43.8247063 88.445337,44.0353376 M74.9589941,52.7842343 C74.4994952,53.8664263 73.2856231,55.0213317 71.7776267,54.3034581 C70.2890052,53.5840827 67.9178859,48.7251698 67.9178859,48.7251698 C67.9178859,48.7251698 67.017763,46.9133399 66.8446384,46.9600217 C66.8446384,46.9600217 66.6501389,46.6062162 66.5308892,48.5861256 C66.4068895,50.5576498 66.5547641,54.401953 65.769266,55.0070643 C65.0251428,55.6138027 64.1241449,55.3722588 63.656896,54.6633961 C63.232147,53.9650463 63.0553975,52.3056519 63.2871469,49.3912303 C63.5595213,46.4711768 64.2370196,43.3643961 65.1026426,42.3969688 C65.9670155,41.4360495 66.6610139,42.1336484 66.9315132,42.3867063 C66.9315132,42.3867063 68.0877605,43.4359832 69.9945059,46.5171077 L70.3310051,47.0870513 C70.3310051,47.0870513 72.063751,49.9979687 72.2447506,49.9912104 C72.2447506,49.9912104 72.3863752,50.1249982 72.5126249,50.0288813 C72.6944995,49.9768179 72.6211247,49.0434321 72.6211247,49.0434321 C72.6211247,49.0434321 72.2616255,45.8710715 70.6808793,40.5015372 C70.6808793,40.5015372 70.4418799,39.8319724 70.6035045,39.2045839 C70.7640041,38.5705624 71.3987526,38.8681746 71.3987526,38.8681746 C71.3987526,38.8681746 73.8487468,40.1015505 75.0379939,44.0952856 C76.2193661,48.0902721 75.425493,51.6939075 74.9589941,52.7842343 M101.327056,50.3923236 C100.211809,52.3405694 97.0633165,56.4200338 92.8790765,55.4568617 C91.4973298,58.8116943 90.3365825,62.2054492 89.6728341,67.283629 C89.6728341,67.283629 89.5269594,68.2704549 88.7078364,67.9276627 C87.8960883,67.6431915 86.5589665,66.2919221 86.2884672,64.4225222 C85.9974678,61.9669089 87.0893402,57.8157323 89.3209599,53.0558148 C88.6700865,51.9964006 88.2263375,50.4828087 88.6062116,48.3275609 C88.6062116,48.3275609 89.1667103,44.3253155 93.1813257,40.7180507 C93.1813257,40.7180507 93.6625746,40.3019193 93.9415739,40.4300753 C94.2489482,40.5591073 94.1065735,41.8614421 93.8626991,42.4947128 C93.6093247,43.124354 91.822079,46.2222489 91.822079,46.2222489 C91.822079,46.2222489 90.7072066,48.3151708 91.0209559,49.9659297 C93.1264509,46.7248605 97.9126895,40.1891571 100.879307,42.2501652 C101.875805,42.9640339 102.33518,44.5167985 102.33518,46.1899596 C102.335804,47.6596231 101.981805,49.2216489 101.327056,50.3923236 M100.461308,45.2593271 C100.461308,45.2593271 100.296184,43.970759 99.0379368,45.3903616 C97.9556894,46.5883194 96.003694,48.8328007 94.4323228,51.8813856 C96.0810688,51.6960351 97.6713151,50.8004452 98.1521889,50.3442651 C98.933937,49.649795 100.755058,47.7656271 100.461308,45.2593271 M124.377126,44.9659701 L116.708645,44.9659701 C116.55577,42.3564195 116.241146,39.8144511 115.746522,37.1965153 C115.695772,36.9255606 115.460273,36.7290714 115.186148,36.7290714 L113.418278,36.7290714 C113.264403,36.7290714 113.118778,36.7982807 113.019029,36.9190526 C112.919029,37.041827 112.879904,37.1980171 112.909279,37.3509532 C113.411653,39.8842861 113.729777,42.3776954 113.886776,44.9684732 L106.509169,44.9684732 C106.16542,44.9684732 105.88617,45.2471873 105.88617,45.5899795 L105.88617,47.1864222 C105.88617,47.5299653 106.16542,47.8106819 106.509169,47.8106819 L113.992401,47.8106819 C113.997151,48.2046613 114.001026,48.5574657 114.001026,48.8884935 C114.001026,51.1892934 113.901901,53.0845999 113.670277,55.2234527 C113.652027,55.3887789 113.706027,55.5533541 113.817902,55.6746267 C113.926401,55.7969005 114.082776,55.8666103 114.245026,55.8666103 L115.884647,55.8666103 C116.204771,55.8666103 116.46977,55.625567 116.501895,55.3065538 C116.725895,53.1531833 116.821894,51.2343482 116.821894,48.8883684 C116.821894,48.5585921 116.818394,48.2045362 116.813519,47.8105568 L124.377251,47.8105568 C124.720126,47.8105568 125,47.5298401 125,47.1862971 L125,45.5898543 C125,45.2455603 124.720001,44.9659701 124.377126,44.9659701" id="Shape"></path>
                <path d="M21.8392456,23.5733119 C21.7306208,23.7350087 21.7043709,23.9333751 21.7667457,24.1197268 C21.8318706,24.3057032 21.9734952,24.4471253 22.1564948,24.5113284 L23.5311165,24.9745171 C23.6142413,25.0005487 23.6968661,25.0141903 23.777866,25.0141903 C24.0326153,25.0141903 24.2717398,24.8879117 24.4133644,24.6759037 C28.9161037,18.0529691 35.0100892,12.5386335 42.0375725,8.72899752 C49.2925552,4.79546071 57.5124107,2.71480371 65.8110159,2.71480371 C75.834492,2.71480371 85.505719,5.67515623 93.7798243,11.2752211 C101.85318,16.7376184 108.123165,24.3586426 111.912156,33.3146664 C112.025281,33.5827426 112.28678,33.7555779 112.57653,33.7555779 L114.218276,33.7555779 C114.407275,33.7555779 114.585275,33.6602119 114.692275,33.5018942 C114.799774,33.343952 114.819899,33.1433329 114.748524,32.9657418 C110.841534,23.3361483 104.234799,15.1272837 95.6399449,9.22973187 C86.8414658,3.19200943 76.5267404,0 65.8110159,0 C48.0959331,0 31.6573472,8.8127244 21.8392456,23.5733119" id="Path"></path>
            </g>
        </g>
    </g>
</svg>