<?xml version="1.0" encoding="UTF-8"?>
<svg width="131px" height="42px" viewBox="0 0 131 42" version="1.1" xmlns="http://www.w3.org/2000/svg" xmlns:xlink="http://www.w3.org/1999/xlink">
    <title>Paytm_Logo_(standalone)</title>
    <g id="Page-1" stroke="none" stroke-width="1" fill="none" fill-rule="evenodd" fill-opacity="0.85">
        <g id="Home" transform="translate(-1171.000000, -759.000000)" fill="#000000" fill-rule="nonzero">
            <g id="Paytm_Logo_(standalone)" transform="translate(1171.000000, 759.000000)">
                <g id="g52" transform="translate(113.240179, 24.116467) scale(-1, 1) rotate(-180.000000) translate(-113.240179, -24.116467) translate(95.480357, 6.413036)">
                    <path d="M35.0775008,29.4317437 C33.8883864,32.9095044 30.6478438,35.4068624 26.8415793,35.4068624 L26.7619389,35.4068624 C24.2875924,35.4068624 22.0576596,34.3534212 20.470343,32.6622968 C18.8802801,34.3534212 16.6503474,35.4068624 14.1787471,35.4068624 L14.0991066,35.4068624 C11.9240984,35.4068624 9.93583323,34.5922012 8.40893349,33.2437964 L8.40893349,33.9292355 C8.35675526,34.6118654 7.80751075,35.1484182 7.12919377,35.1484182 L1.2907246,35.1484182 C0.576706738,35.1484182 0,34.5584911 0,33.825296 L0,1.39335162 C0,0.660156511 0.576706738,0.0702294161 1.2907246,0.0702294161 L7.12919377,0.0702294161 C7.78004852,0.0702294161 8.31556192,0.567453682 8.40069482,1.21075513 L8.3979486,24.4932112 C8.3979486,24.5746773 8.40069482,24.650525 8.40893349,24.7263728 C8.50230506,25.7657682 9.24653137,26.6197579 10.4219146,26.7265066 L10.6388662,26.7265066 L11.2512738,26.7265066 L11.4984339,26.7265066 C11.9900077,26.6815598 12.4046873,26.5045816 12.7314878,26.2377099 C13.239539,25.8247609 13.5223999,25.189887 13.5223999,24.4932112 L13.5443697,1.32593138 C13.5443697,0.592736272 14.1238226,0 14.8350943,0 L20.6735635,0 C21.3628653,0 21.9230947,0.561835329 21.9560494,1.26132031 L21.9533032,24.5241121 C21.9505569,25.2882081 22.296581,25.9792656 22.9034962,26.3894054 C23.2028344,26.5860478 23.5625896,26.7180791 23.9772692,26.7574075 L24.1942208,26.7574075 L24.8066284,26.7574075 L25.0537884,26.7574075 C26.3170508,26.6450405 27.0805007,25.6646378 27.0777545,24.5241121 L27.0997243,1.38773326 C27.0997243,0.654538158 27.6791772,0.0646110628 28.3904489,0.0646110628 L34.228918,0.0646110628 C34.9401897,0.0646110628 35.5196426,0.654538158 35.5196426,1.38773326 L35.5196426,26.27142 C35.5196426,27.9681627 35.3328995,28.6901211 35.0775008,29.4317437" id="path54"></path>
                </g>
                <g id="g56" transform="translate(83.473670, 21.000000) scale(-1, 1) rotate(-180.000000) translate(-83.473670, -21.000000) translate(74.623968, 0.000000)">
                    <path d="M16.4086798,35.2439302 L13.0692732,35.2439302 L13.0692732,40.7780082 L13.0692732,40.7780082 C13.0692732,40.7836265 13.0692732,40.7892449 13.0692732,40.7948632 C13.0692732,41.4606381 12.5419984,42 11.8911437,42 C11.8142495,42 11.7401015,41.9887633 11.6686997,41.9747174 C7.96679166,40.9353221 8.70827175,35.6905893 1.94981802,35.2439302 L1.79877578,35.2439302 L1.29347083,35.2439302 C1.19460682,35.2439302 1.10123525,35.2298843 1.0106099,35.2102201 L1.00511746,35.2102201 L1.0106099,35.2074109 C0.433903165,35.0753796 0,34.5528727 0,33.9236171 L0,27.9513076 C0,27.2237309 0.579452961,26.6309946 1.29347083,26.6309946 L4.81687438,26.6309946 L4.81138193,1.30626714 C4.81138193,0.584308742 5.38259622,0 6.08837542,0 L11.8609353,0 C12.5639682,0 13.1351825,0.584308742 13.1351825,1.30626714 L13.1379287,26.6309946 L16.4086798,26.6309946 C17.1199515,26.6309946 17.6994044,27.2237309 17.6994044,27.9513076 L17.6994044,33.9236171 C17.6994044,34.6511939 17.1199515,35.2439302 16.4086798,35.2439302" id="path58"></path>
                </g>
                <g id="g60" transform="translate(60.296592, 24.309210) scale(-1, 1) rotate(-180.000000) translate(-60.296592, -24.309210) translate(49.276001, 6.756070)">
                    <path d="M20.7504577,35.1062805 L14.9119885,35.1062805 C14.2007169,35.1062805 13.6240101,34.5135442 13.6240101,33.7859675 L13.6240101,21.436827 C13.610279,20.6727309 13.0061101,20.0603304 12.2563913,20.0603304 L9.81225322,20.0603304 C9.05429579,20.0603304 8.44188816,20.6839676 8.44188816,21.4593004 L8.41991838,33.7859675 C8.41991838,34.5135442 7.84046542,35.1062805 7.12919377,35.1062805 L1.2907246,35.1062805 C0.576706738,35.1062805 0,34.5135442 0,33.7859675 L0,20.2513544 C0,15.1105612 3.58382045,11.4445856 8.61215396,11.4445856 C8.61215396,11.4445856 12.3854638,11.4445856 12.5008051,11.4221122 C13.1818683,11.3434553 13.7118893,10.7591465 13.7118893,10.0399973 C13.7118893,9.32927563 13.1928532,8.74777607 12.5200287,8.66069159 C12.487074,8.65507324 12.4568655,8.64664571 12.4211647,8.64102736 L3.8831587,8.61012641 C3.16914084,8.61012641 2.5924341,8.01739014 2.5924341,7.28981339 L2.5924341,1.32031302 C2.5924341,0.589927095 3.16914084,0 3.8831587,0 L13.4290283,0 C18.4601081,0 22.0411823,3.66316634 22.0411823,8.80676878 L22.0411823,33.7859675 C22.0411823,34.5135442 21.4644756,35.1062805 20.7504577,35.1062805" id="path62"></path>
                </g>
                <g id="g64" transform="translate(10.979398, 24.289499) scale(-1, 1) rotate(-180.000000) translate(-10.979398, -24.289499) translate(0.000000, 6.754619)">
                    <path d="M13.5141612,24.125209 L13.5141612,21.3385058 L13.5141612,20.4395693 C13.5141612,19.6670457 12.9017536,19.0377901 12.1465424,19.0377901 L8.44188816,19.0349809 L8.44188816,26.4203063 L12.1465424,26.4203063 C12.9017536,26.4203063 13.5141612,25.7966691 13.5141612,25.0213364 L13.5141612,24.125209 Z M14.0277049,35.0697612 L1.2660086,35.0697612 C0.565721848,35.0697612 0,34.4882617 0,33.7747308 L0,27.9232158 C0,27.9119791 0.00274622256,27.9007424 0.00274622256,27.8895057 C0.00274622256,27.861414 0,27.8333222 0,27.8080396 L0,9.03993044 L0,1.3231222 C0,0.603972978 0.527274732,0.0168550599 1.1808757,0 L1.2907246,0 L7.12919377,0 C7.84046542,0 8.41991838,0.589927095 8.41991838,1.32031302 L8.44188816,10.3967628 L14.0277049,10.3967628 C18.7017757,10.3967628 21.9587956,13.7144004 21.9587956,18.5152833 L21.9587956,26.940004 C21.9587956,31.7408869 18.7017757,35.0697612 14.0277049,35.0697612" id="path66"></path>
                </g>
                <g id="g68" transform="translate(35.105230, 24.243675) scale(-1, 1) rotate(-180.000000) translate(-35.105230, -24.243675) translate(24.013237, 6.788856)">
                    <path d="M13.7256204,9.97819544 L13.7256204,9.04554879 C13.7256204,8.96970102 13.7146355,8.89666243 13.7036506,8.82643301 C13.6899195,8.75901278 13.6706959,8.69440171 13.6487261,8.63259983 C13.4674755,8.11009297 12.9566781,7.73085412 12.3497629,7.73085412 L9.9193559,7.73085412 C9.16139847,7.73085412 8.54349839,8.32078122 8.54349839,9.04554879 L8.54349839,10.1720286 C8.54349839,10.1860745 8.54075217,10.2001204 8.54075217,10.2141663 L8.54349839,13.2115578 L8.54349839,13.2171761 L8.54349839,13.548659 L8.54349839,14.1498228 L8.54624462,14.1582503 C8.54899084,14.8802087 9.16139847,15.4645174 9.9193559,15.4645174 L12.3497629,15.4645174 C13.1104665,15.4645174 13.7256204,14.8773995 13.7256204,14.1498228 L13.7256204,9.97819544 Z M12.7973971,34.9096382 L4.69604058,34.9096382 C3.97927649,34.9096382 3.39982353,34.3534212 3.39982353,33.6707913 L3.39982353,31.3476022 C3.39982353,31.3335563 3.40256976,31.3167012 3.40256976,31.3026553 C3.40256976,31.2858003 3.39982353,31.2689452 3.39982353,31.2520902 L3.39982353,28.069293 C3.39982353,27.3473346 4.01497739,26.7574075 4.77293482,26.7574075 L12.487074,26.7574075 C13.0967354,26.6590863 13.5800706,26.2039997 13.6487261,25.493278 L13.6487261,24.7235636 C13.5800706,24.0465521 13.1022278,23.552137 12.5200287,23.4959534 L8.70003308,23.4959534 C3.61952134,23.4959534 0,20.0434754 0,15.1948365 L0,8.42752993 L0,8.2505518 C0,3.43000468 3.11147016,0 8.15628101,0 L18.742969,0 C20.643355,0 22.1839859,1.47200856 22.1839859,3.2839275 L22.1839859,25.9455555 C22.1839859,31.440305 19.4157935,34.9096382 12.7973971,34.9096382" id="path70"></path>
                </g>
            </g>
        </g>
    </g>
</svg>