<?xml version="1.0" encoding="UTF-8"?>
<svg width="91px" height="60px" viewBox="0 0 91 60" version="1.1" xmlns="http://www.w3.org/2000/svg" xmlns:xlink="http://www.w3.org/1999/xlink">
    <title>iconfinder_intel_294676</title>
    <g id="Page-1" stroke="none" stroke-width="1" fill="none" fill-rule="evenodd" fill-opacity="0.85">
        <g id="Home" transform="translate(-137.000000, -749.000000)" fill="#000000">
            <g id="iconfinder_intel_294676" transform="translate(137.000000, 749.000000)">
                <path d="M64.4407849,48.7566783 C63.6198227,49.0600224 62.8140928,49.2584922 62.0016369,49.57826 C60.7862172,50.0563287 58.3355956,50.7130796 56.9807112,51.0037596 C55.2363149,51.3779434 53.57718,51.8524504 51.7493027,52.2185212 C49.8642548,52.595871 48.184942,52.7990898 46.227689,53.1428006 C44.4174179,53.4609854 42.274212,53.5710046 40.3426759,53.7039773 C38.3254828,53.8428864 36.2319302,53.9317327 34.0489621,53.9317327 L33.593971,53.9317327 C25.8229209,53.9317327 18.4091376,52.709254 13.2204587,50.1135149 C8.22960203,47.6165161 3.56416288,42.9885891 3.56416288,35.5749621 L3.56416288,34.8922894 C3.56416288,31.4047226 4.63517236,28.725282 5.64208744,26.1995911 C6.08402227,25.0908911 6.91744727,23.6778577 7.55285223,22.725282 C7.94988142,22.1300706 8.27233163,21.6969197 8.68914304,21.1311919 C9.06184009,20.6256184 9.6424483,20.0808654 9.93403825,19.6455379 L9.93403825,17.2181914 C8.72494886,18.0280984 7.45413894,19.621397 6.42843075,20.6903239 C5.26464265,21.9031067 4.40174214,23.2557879 3.44270003,24.6822769 C2.01897354,26.7993536 0,31.7260735 0,35.1954357 L0,37.62298 C0,41.9054152 1.69810591,45.7123541 3.4272699,48.303542 C5.38452291,51.2372535 7.99221537,52.972825 10.9805178,54.8571994 C13.3381629,56.3440406 18.0991502,57.9933382 21.315146,58.6287184 C25.279701,59.4117143 29.2808532,60 34.0491599,60 L36.3998813,60 C51.0543533,60 65.9434424,55.7438823 75.529907,50.6701405 L75.529907,43.7674296 C72.9360621,45.1402942 69.7424203,46.9530374 66.7479854,47.8781083 C66.1111957,48.0751929 65.1076435,48.5099268 64.4407849,48.7566783 Z M90.5903102,17.0972891 C90.4474825,16.3038058 90.1600469,15.2908779 89.8856675,14.6159224 C89.2006091,12.9308093 88.6316724,11.7916364 87.6075468,10.4470681 C85.7135969,7.95936943 83.4574345,6.1616648 80.6362919,4.60081789 C75.4573063,1.73576941 67.5744866,0 59.5288592,0 L58.8463726,0 C50.5445654,0 43.6785519,1.38097751 37.1889941,3.21647649 C35.4750624,3.701273 34.0810093,4.20170173 32.484584,4.73082251 C31.1629338,5.16872238 29.2280347,5.90205132 28.0318037,6.49686696 C26.6138141,7.20189961 25.1995831,7.80759844 23.8114646,8.49541587 C23.0761594,8.86010158 20.2526429,10.5879559 19.7925084,10.6954027 L19.7925084,12.5156652 C20.4182201,12.3700284 22.7228489,11.0964976 23.6086968,10.7195436 C24.8377662,10.1967548 26.3805817,9.42068465 27.6183553,9.04155399 C28.1795769,8.86959963 29.1071653,8.5183695 29.6640348,8.28111602 C30.3399933,7.9928105 31.0464165,7.81650287 31.764709,7.5758855 C33.1338365,7.11681288 34.664387,6.59877317 36.1124456,6.23586835 C39.2319042,5.45346613 41.9806439,4.81828375 45.3930771,4.21654244 C48.300668,3.70404327 52.3900489,3.18600356 55.6620284,3.18600356 L59.0744616,3.18600356 C65.7183207,3.18600356 72.9111365,4.71202427 77.1724249,7.08060154 C79.7579613,8.51797375 81.4954338,9.72719478 83.2786032,11.9715058 C84.6226074,13.662951 86.2983594,17.036739 86.2983594,20.0256579 L86.2983594,21.3152167 C86.2983594,24.4656025 84.6621718,27.8534397 83.2964072,29.6905217 C82.4681256,30.8043665 81.6475591,31.7969131 80.6309507,32.7132775 C80.1367908,33.1588945 77.8289968,34.9912275 77.2739077,35.1204406 L77.2739077,40.1267067 C78.3429389,40.0380582 81.5595282,37.9662951 82.3862272,37.3518897 C83.9092605,36.2186531 85.2738381,34.9152431 86.4362415,33.4382956 C87.7582873,31.7591188 88.4712386,30.5283293 89.4326546,28.4708133 C89.8680613,27.5396082 90.1196911,26.5828771 90.4368001,25.5307697 C90.5653846,25.1037531 90.991098,22.087923 91,22.0738738 L91,19.8740848 C90.9738875,19.8331245 90.6468873,17.4125058 90.5903102,17.0972891 Z M66.6569871,32.3893543 L66.6569871,30.3411384 C66.6569871,27.9286327 65.7944823,25.6051712 64.7404855,24.2178616 C63.7399007,22.900996 61.7102448,21.3906075 59.4528955,21.3906075 L58.0121563,21.3906075 C55.6270138,21.3906075 53.4687734,22.888134 52.3043919,24.1769013 C51.1154803,25.4927775 50.125578,27.9986808 50.125578,30.4929094 L50.125578,31.4033375 C50.125578,36.6183629 53.3243632,40.429655 58.5429133,40.429655 L59.5286614,40.429655 C61.1082718,40.429655 62.2364519,40.0469626 63.366808,39.5665194 C64.5978557,39.043137 65.2237652,38.1521008 66.1454189,37.5270101 L63.1683924,34.7407163 C62.5820473,35.6167139 60.9575313,36.4853901 59.4526977,36.4853901 L58.6184814,36.4853901 C56.6446113,36.4853901 54.8270208,34.8068069 54.8270208,32.9202559 L54.8270208,32.3891564 L66.6569871,32.3891564 L66.6569871,32.3893543 Z M54.8272186,28.672449 C54.8272186,26.9627993 56.4936729,25.2590858 58.239454,25.2590858 L58.6186792,25.2590858 C60.6014513,25.2590858 61.9555443,26.9410329 61.9555443,28.82422 L61.9555443,29.2035486 L54.8272186,29.2035486 L54.8272186,28.672449 Z M37.3096657,40.1263109 L37.3096657,27.1553328 C37.3096657,24.0775674 35.2157175,21.6937537 32.153034,21.6937537 L22.143032,21.6937537 L22.143032,40.1261131 L26.7689067,40.1261131 L26.7689067,25.4864455 L30.9395925,25.4864455 C31.8586745,25.4864455 32.6080251,26.1982059 32.6080251,27.0795462 L32.6080251,40.1263109 L37.3096657,40.1263109 L37.3096657,40.1263109 Z M40.7220989,16.6117011 L40.7220989,34.6647319 C40.7220989,37.7798958 42.7470071,40.1263109 45.8029647,40.1263109 L48.9881002,40.1263109 L48.9881002,36.1818482 L46.637181,36.1818482 C45.9408468,36.1818482 45.4239374,35.3758987 45.4239374,34.6647319 L45.4239374,25.4864455 L48.9881002,25.4864455 L48.9881002,21.6937537 L45.4239374,21.6937537 L45.4239374,16.6117011 L40.7220989,16.6117011 L40.7220989,16.6117011 Z M74.0887722,39.9747378 L74.0887722,14.0329794 L69.3871316,14.0329794 L69.3871316,35.6511444 C69.3871316,36.9102302 70.1495384,38.0521733 70.8076929,38.7055603 C71.1612012,39.0561968 71.7194555,39.3456896 72.2371562,39.5514808 C72.9613834,39.8397863 73.3358608,39.7992217 74.0887722,39.9747378 Z M17.9723462,40.3538685 L17.9723462,21.6937537 L13.2881139,21.6943473 L13.1763444,26.0171493 L13.1947418,35.1958314 C13.1947418,38.3052569 15.0170801,40.2879757 17.9723462,40.3538685 Z M17.9723462,14.6394697 L13.2707056,14.6394697 L13.2707056,19.115032 L17.9723462,19.115032 L17.9723462,14.6394697 Z M78.6624218,16.0760504 L78.8541115,16.0760504 C78.9690463,16.0760504 79.0566815,16.099004 79.1164238,16.1459007 C79.2030699,16.2090232 79.3166199,16.3665326 79.457865,16.6170437 L79.6376853,16.9364158 L80.0372862,16.9364158 L79.7902063,16.5400699 C79.6717108,16.3520876 79.5720084,16.2183233 79.4905056,16.1381835 C79.447776,16.0966295 79.3896163,16.0606161 79.3184003,16.0309346 C79.4928795,16.0172812 79.6335311,15.9559396 79.7391681,15.8461183 C79.8448052,15.7360992 79.8974259,15.6074797 79.8974259,15.4592705 C79.8974259,15.354594 79.8659722,15.2558538 79.8026691,15.1620606 C79.7391681,15.0690588 79.6546981,15.0035618 79.5482697,14.9661632 C79.4418414,14.9287646 79.269736,14.9107579 79.0315581,14.9107579 L78.3356195,14.9107579 L78.3356195,16.9364158 L78.6624218,16.9364158 L78.6624218,16.0760504 Z M78.6624218,15.1850142 L79.0339319,15.1850142 C79.1939701,15.1850142 79.3029702,15.1960952 79.3625146,15.2200383 C79.4214657,15.2429919 79.4673604,15.2788075 79.5003967,15.3255062 C79.5336309,15.3731944 79.5508414,15.4268188 79.5508414,15.4863795 C79.5508414,15.5801728 79.5158269,15.6551679 79.4467869,15.7113647 C79.377747,15.7675615 79.248569,15.7966493 79.059451,15.7966493 L78.6624218,15.7966493 L78.6624218,15.1850142 L78.6624218,15.1850142 Z M78.2248391,17.5292527 C78.5229572,17.6952708 78.8353184,17.777983 79.1615273,17.777983 C79.4875383,17.777983 79.7993061,17.6952708 80.0982155,17.5292527 C80.3963335,17.3640261 80.6289725,17.1313238 80.7939562,16.8315415 C80.959929,16.5325506 81.0428166,16.2208957 81.0428166,15.896181 C81.0428166,15.5684981 80.9583465,15.2530836 80.790791,14.9517182 C80.62284,14.6493635 80.388025,14.4176506 80.0871374,14.2549964 C79.7858542,14.0933316 79.4774494,14.0122024 79.1615273,14.0122024 C78.8454074,14.0122024 78.5364091,14.0931337 78.2359171,14.2549964 C77.9344361,14.4176506 77.6992254,14.6493635 77.5306809,14.9517182 C77.3619386,15.2530836 77.2778641,15.5684981 77.2778641,15.896181 C77.2778641,16.2208957 77.3605538,16.5325506 77.5273179,16.8315415 C77.6934886,17.1313238 77.9257319,17.3640261 78.2248391,17.5292527 Z M77.5896319,15.896181 C77.5896319,15.6229141 77.6600567,15.3605303 77.8014995,15.1084361 C77.9429424,14.8571334 78.1385886,14.663017 78.3892293,14.5274718 C78.6394744,14.3919267 78.8964455,14.3238573 79.1615273,14.3238573 C79.4238395,14.3238573 79.6810084,14.3921245 79.9322426,14.5274718 C80.1834768,14.6628191 80.3793208,14.8571334 80.5199724,15.1084361 C80.6604262,15.3605303 80.7302575,15.6231119 80.7302575,15.896181 C80.7302575,16.1670734 80.6612175,16.4270826 80.5233354,16.6756151 C80.3854533,16.9241475 80.1919832,17.1184618 79.9425294,17.2573709 C79.6930756,17.3960821 79.4325437,17.4661302 79.1617251,17.4661302 C78.8901152,17.4661302 78.6303746,17.3960821 78.3809208,17.2573709 C78.1312692,17.1184618 77.9374034,16.9241475 77.7983344,16.6756151 C77.6592654,16.4268848 77.5896319,16.1670734 77.5896319,15.896181 Z" id="Shape"></path>
            </g>
        </g>
    </g>
</svg>