<?xml version="1.0" encoding="UTF-8"?>
<svg width="138px" height="56px" viewBox="0 0 138 56" version="1.1" xmlns="http://www.w3.org/2000/svg" xmlns:xlink="http://www.w3.org/1999/xlink">
    <title>AT&amp;T_logo_2016</title>
    <g id="Page-1" stroke="none" stroke-width="1" fill="none" fill-rule="evenodd" fill-opacity="0.85">
        <g id="Home" transform="translate(-873.000000, -755.000000)" fill="#000000" fill-rule="nonzero">
            <g id="AT&amp;T_logo_2016" transform="translate(873.000000, 755.000000)">
                <path d="M127.678541,39.2245358 C127.309351,39.2245358 127.055084,38.9718214 127.055084,38.6083487 L127.055084,20.5533734 L120.843832,20.5533734 C120.474504,20.5533734 120.219824,20.3017489 120.219824,19.9378675 L120.219824,17.447371 C120.219824,17.0826722 120.474642,16.8303666 120.843832,16.8303666 L137.377095,16.8303666 C137.746009,16.8303666 138,17.0829447 138,17.447371 L138,19.9377313 C138,20.3013402 137.746009,20.5533734 137.377095,20.5533734 L131.166257,20.5533734 L131.166257,38.6080763 C131.166257,38.9718214 130.910749,39.2245358 130.5428,39.2245358 L127.678541,39.2245358 M80.0993657,30.2104672 L76.8388757,20.973792 L73.5491375,30.2104672 L80.0993657,30.2104672 Z M87.3308573,38.4950019 C87.4733736,38.859837 87.2460098,39.2245358 86.848951,39.2245358 L83.9002584,39.2245358 C83.4746412,39.2245358 83.2191329,39.029176 83.0768926,38.6354593 L81.4044998,33.8784354 L72.2456589,33.8784354 L70.5703689,38.6354593 C70.4296461,39.0293122 70.173448,39.2245358 69.7489345,39.2245358 L66.9707647,39.2245358 C66.6015746,39.2245358 66.3459283,38.8597007 66.4878927,38.4950019 L74.1727322,17.3913788 C74.3149725,16.9982071 74.5700669,16.8313202 74.9945804,16.8313202 L78.7946454,16.8313202 C79.2204006,16.8313202 79.5040534,16.9983433 79.6457419,17.3913788 L87.3308573,38.4950019 M109.358652,36.2008189 C111.172733,36.2008189 112.392744,35.3345059 113.385529,33.8502349 L108.792312,28.9790467 C107.033278,29.9595239 105.898391,30.9379575 105.898391,32.8979582 C105.898667,34.8297584 107.485936,36.2008189 109.358652,36.2008189 M110.634538,19.7974101 C109.160398,19.7974101 108.309716,20.7220313 108.309716,21.9534517 C108.309716,22.9050472 108.819077,23.7449308 109.982247,24.9768961 C111.995409,23.8284423 112.846644,23.1290162 112.846644,21.8977319 C112.846644,20.7491418 112.109643,19.7974101 110.634538,19.7974101 M123.198178,38.4406445 C123.566403,38.8328626 123.340005,39.2245358 122.885001,39.2245358 L119.283604,39.2245358 C118.801698,39.2245358 118.546465,39.1120064 118.234668,38.7477163 L116.079541,36.3974047 C114.633546,38.3010045 112.618452,39.7281934 109.272977,39.7281934 C105.13297,39.7281934 101.870824,37.26508 101.870824,33.0390968 C101.870824,29.7910022 103.629996,28.0551067 106.296002,26.5998535 C104.990454,25.1163999 104.396107,23.5487536 104.396107,22.1778294 C104.396107,18.7059021 106.863031,16.3269814 110.577283,16.3269814 C114.377348,16.3269814 116.703136,18.5391515 116.703136,21.8135392 C116.703136,24.6127423 114.661829,26.17889 112.505874,27.3554081 L115.682482,30.7435514 L117.468695,27.6632973 C117.695369,27.2999608 117.950739,27.1595034 118.403811,27.1595034 L121.153974,27.1595034 C121.608426,27.1595034 121.863658,27.46821 121.580971,27.9438034 L118.404225,33.3174231 L123.198178,38.4406445 M94.8976001,39.2245358 C95.2662384,39.2245358 95.5227125,38.9718214 95.5227125,38.6083487 L95.5227125,20.5533734 L101.732171,20.5533734 C102.100809,20.5533734 102.355766,20.3017489 102.355766,19.9378675 L102.355766,17.447371 C102.355766,17.0826722 102.100809,16.8303666 101.732171,16.8303666 L85.1989083,16.8303666 C84.8297181,16.8303666 84.5750376,17.0829447 84.5750376,17.447371 L84.5750376,19.9377313 C84.5750376,20.3013402 84.8298561,20.5533734 85.1989083,20.5533734 L91.4083668,20.5533734 L91.4083668,38.6080763 C91.4083668,38.9718214 91.6644269,39.2245358 92.0326513,39.2245358 L94.8976001,39.2245358 L94.8976001,39.2245358 Z" id="path5"></path>
                <path d="M10.9718185,50.1150935 C15.781086,53.7912358 21.8175384,56 28.3668008,56 C35.5338635,56 42.0676741,53.372452 47.0542246,49.0592789 C47.1146526,49.0065563 47.0848525,48.9716803 47.0252523,49.0065563 C44.7876233,50.4822446 38.4101253,53.703501 28.3670767,53.703501 C19.6392336,53.703501 14.1235932,51.780556 11.0087927,50.0637333 C10.9491925,50.0347154 10.9271183,50.0788552 10.9718185,50.1150935 M30.2923565,51.5463695 C37.2730306,51.5463695 44.9439359,49.6672919 49.5317721,45.947691 C50.7872394,44.9342451 51.9831065,43.5853908 53.0541167,41.7726593 C53.6706753,40.7296506 54.2737135,39.4904648 54.7648633,38.2723953 C54.7866615,38.2129972 54.7495494,38.1841156 54.7042974,38.2508703 C50.437916,44.4506139 38.0834279,48.3176202 25.3267764,48.3176202 C16.3098999,48.3176202 6.60789691,45.4703265 2.80948749,40.0336304 C2.77209939,39.98336 2.7347113,40.004885 2.75747527,40.0626482 C6.29596157,47.4893166 17.0308968,51.5463695 30.2923565,51.5463695 M22.6653237,39.2258981 C8.14687908,39.2258981 1.3011332,32.5487901 0.0593242791,27.9921665 C0.0440103373,27.9262292 0,27.94067 0,27.9999319 C0,29.5339284 0.155484797,31.5135468 0.422995906,32.8275251 C0.550612088,33.4671445 1.07777039,34.4709177 1.85064158,35.2710208 C5.36622595,38.889536 14.1310433,43.9598985 29.3103328,43.9598985 C49.9914663,43.9598985 54.7201632,37.1571826 55.6857693,34.9200816 C56.3762763,33.3201478 56.7340155,30.4288505 56.7340155,28.0000681 C56.7340155,27.412354 56.7191154,26.9428911 56.6966274,26.482011 C56.6966274,26.4072185 56.652755,26.4010879 56.637579,26.4739732 C55.6040949,31.9479975 37.9344274,39.2258981 22.6653237,39.2258981 M2.7347113,15.9878946 C1.90279176,17.6182087 0.980644129,20.3686399 0.706510775,21.7921505 C0.586344619,22.4020708 0.637529055,22.6949742 0.854131655,23.1501325 C2.59426452,26.7958945 11.396194,32.6291682 31.9276372,32.6291682 C44.4533379,32.6291682 54.1836233,29.5904656 55.7599936,24.045327 C56.0502687,23.0245246 56.0658585,21.9467762 55.6929434,20.4945202 C55.2762938,18.8716991 54.4959726,16.9792705 53.8355416,15.6504426 C53.8137434,15.6071202 53.7752516,15.6135232 53.7831155,15.6647472 C54.0284145,22.9377434 33.4888315,27.6251517 23.1254318,27.6251517 C11.9000365,27.6251517 2.53494024,23.2087131 2.53494024,17.6321045 C2.53494024,17.0962956 2.64724248,16.5603505 2.78741334,16.0026079 C2.80148561,15.9516563 2.75733731,15.9432098 2.7347113,15.9878946 M47.1001665,7.05815495 C47.2193669,7.24261599 47.2788291,7.43947433 47.2788291,7.70444975 C47.2788291,10.8154927 37.6364263,16.3190798 22.2870279,16.3190798 C11.0087927,16.3190798 8.89726223,12.1876431 8.89726223,9.56023131 C8.89726223,8.62103309 9.26203756,7.66003742 10.0653987,6.68405598 C10.109271,6.62602024 10.0720209,6.60367784 10.0213883,6.64686406 C8.5562166,7.87297139 7.20996936,9.2526146 6.02900231,10.7419263 C5.46473185,11.4462568 5.11444267,12.0702092 5.11444267,12.4440357 C5.11444267,17.8889059 18.9405867,21.836699 31.8684509,21.836699 C45.6432725,21.836699 51.7909234,17.3962832 51.7909234,13.4939923 C51.7909234,12.0993633 51.2411391,11.2852281 49.8347398,9.70681925 C48.9218357,8.68002248 48.0583225,7.84395351 47.1443148,7.02096303 C47.1001665,6.98499721 47.0694006,7.01428756 47.1001665,7.05815495 M42.8772435,3.94779313 C38.6260381,1.43154842 33.6892923,0 28.3670767,0 C23.0077489,0 17.9222786,1.48154635 13.6557592,4.06440956 C12.3760104,4.84217031 11.6557032,5.46544153 11.6557032,6.26663455 C11.6557032,8.62838974 17.245292,11.1677942 27.1619661,11.1677942 C36.9757194,11.1677942 44.5874383,8.38630166 44.5874383,5.70889195 C44.5874383,5.06981757 44.0217882,4.6226971 42.8772435,3.94779313" id="path9"></path>
            </g>
        </g>
    </g>
</svg>