<?xml version="1.0" encoding="UTF-8"?>
<svg width="44px" height="56px" viewBox="0 0 44 56" version="1.1" xmlns="http://www.w3.org/2000/svg" xmlns:xlink="http://www.w3.org/1999/xlink">
    <title>iconfinder_16-apple_104490</title>
    <g id="Page-1" stroke="none" stroke-width="1" fill="none" fill-rule="evenodd">
        <g id="Home" transform="translate(-390.000000, -748.000000)" fill="#000000" fill-rule="nonzero">
            <g id="iconfinder_16-apple_104490" transform="translate(390.000000, 748.000000)">
                <path d="M36.7502652,29.7573009 C36.682172,22.6637195 42.3317153,19.2614867 42.5843193,19.0896107 C39.4091969,14.2782229 34.4625516,13.6180372 32.7020116,13.5429127 C28.4956059,13.100133 24.4901851,16.1108074 22.3562304,16.1108074 C20.2266689,16.1108074 16.9296376,13.607793 13.4415058,13.6715351 C8.8528993,13.7421066 4.62342974,16.4374854 2.26213149,20.6945449 C-2.50329786,29.2621616 1.04304263,41.9593536 5.68656309,48.9129302 C7.95670424,52.3117482 10.6639601,56.1362722 14.215792,55.9962673 C17.6391253,55.8562624 18.9307006,53.7015529 23.069013,53.7015529 C27.2073255,53.7015529 28.3693039,55.9962673 31.9903273,55.9245575 C35.671756,55.8551242 38.0055973,52.4608591 40.2570677,49.0483821 C42.863282,45.0997887 43.9362999,41.2764029 44,41.0829002 C43.9198257,41.0441997 36.8238499,38.227028 36.7502652,29.7573009 Z" id="Path"></path>
                <path d="M29.9464315,8.9409631 C31.8299787,6.57112412 33.106178,3.27816343 32.7591221,0 C30.0408834,0.113825119 26.7504417,1.87242321 24.7988013,4.23998569 C23.0503423,6.34119738 21.521539,9.68651763 21.9311968,12.905492 C24.963543,13.1490778 28.0562946,11.3062491 29.9464315,8.9409631 Z" id="Path"></path>
            </g>
        </g>
    </g>
</svg>