<svg width="60" height="60" viewBox="0 0 60 60" fill="none" xmlns="http://www.w3.org/2000/svg">
<path d="M10.1602 23.3145C10.1602 20.3262 10.8223 17.9648 12.1465 16.2305C13.4824 14.4961 15.3105 13.6289 17.6309 13.6289C19.6699 13.6289 21.293 14.4082 22.5 15.9668L22.834 13.9805H27.2988V40.3125H22.2012V31.3652C21.0293 32.6895 19.4941 33.3516 17.5957 33.3516C15.334 33.3516 13.5293 32.4727 12.1816 30.7148C10.834 28.957 10.1602 26.4902 10.1602 23.3145ZM15.2402 23.6836C15.2402 25.5 15.5566 26.8828 16.1895 27.832C16.834 28.7812 17.7363 29.2559 18.8965 29.2559C20.4551 29.2559 21.5566 28.6348 22.2012 27.3926V19.5352C21.5684 18.3398 20.4785 17.7422 18.9316 17.7422C17.7598 17.7422 16.8516 18.2168 16.207 19.166C15.5625 20.1152 15.2402 21.6211 15.2402 23.6836ZM48.4277 23.666C48.4277 26.5957 47.7598 28.9453 46.4238 30.7148C45.0996 32.4727 43.3066 33.3516 41.0449 33.3516C39.123 33.3516 37.5703 32.6836 36.3867 31.3477V40.3125H31.3066V13.9805H36.0176L36.1934 15.8438C37.4238 14.3672 39.0293 13.6289 41.0098 13.6289C43.3535 13.6289 45.1758 14.4961 46.4766 16.2305C47.7773 17.9648 48.4277 20.3555 48.4277 23.4023V23.666ZM43.3477 23.2969C43.3477 21.5273 43.0312 20.1621 42.3984 19.2012C41.7773 18.2402 40.8691 17.7598 39.6738 17.7598C38.0801 17.7598 36.9844 18.3691 36.3867 19.5879V27.375C37.0078 28.6289 38.1152 29.2559 39.709 29.2559C42.1348 29.2559 43.3477 27.2695 43.3477 23.2969Z" fill="black"/>
<circle cx="30" cy="30" r="28" stroke="black" stroke-width="4"/>
</svg>
